<?xml version="1.0" standalone="no"?>
<!DOCTYPE svg PUBLIC "-//W3C//DTD SVG 1.1//EN" "http://www.w3.org/Graphics/SVG/1.1/DTD/svg11.dtd" >
<!--
2013-9-30: Created.
-->
<svg>
<metadata>
Created by iconfont
</metadata>
<defs>

<font id="icon" horiz-adv-x="1024" >
  <font-face
    font-family="icon"
    font-weight="500"
    font-stretch="normal"
    units-per-em="1024"
    ascent="896"
    descent="-128"
  />
    <missing-glyph />
    
    <glyph glyph-name="x" unicode="x" horiz-adv-x="1001"
d="M281 543q-27 -1 -53 -1h-83q-18 0 -36.5 -6t-32.5 -18.5t-23 -32t-9 -45.5v-76h912v41q0 16 -0.5 30t-0.5 18q0 13 -5 29t-17 29.5t-31.5 22.5t-49.5 9h-133v-97h-438v97zM955 310v-52q0 -23 0.5 -52t0.5 -58t-10.5 -47.5t-26 -30t-33 -16t-31.5 -4.5q-14 -1 -29.5 -0.5
t-29.5 0.5h-32l-45 128h-439l-44 -128h-29h-34q-20 0 -45 1q-25 0 -41 9.5t-25.5 23t-13.5 29.5t-4 30v167h911zM163 247q-12 0 -21 -8.5t-9 -21.5t9 -21.5t21 -8.5q13 0 22 8.5t9 21.5t-9 21.5t-22 8.5zM316 123q-8 -26 -14 -48q-5 -19 -10.5 -37t-7.5 -25t-3 -15t1 -14.5
t9.5 -10.5t21.5 -4h37h67h81h80h64h36q23 0 34 12t2 38q-5 13 -9.5 30.5t-9.5 34.5q-5 19 -11 39h-368zM336 498v228q0 11 2.5 23t10 21.5t20.5 15.5t34 6h188q31 0 51.5 -14.5t20.5 -52.5v-227h-327z" />
    

    
    <glyph glyph-name="plus" unicode="&#58880;" d="M1009.103 301.149h-414.253v-414.253h-165.7v414.253h-414.253v165.7h414.253v414.253h165.7v-414.253h414.253v-165.7z"  horiz-adv-x="1024" />

    
    <glyph glyph-name="edit" unicode="&#58913;" d="M304.993-65.489v0l-301.132-55.577 60.753 295.965 240.378-240.385zM777.376 887.657l-107.862-107.86 240.385-240.379 107.862 107.857-240.385 240.383zM118.491 228.768l240.385-240.377 497.148 497.139-240.383 240.391-497.152-497.153z"  horiz-adv-x="1024" />

    
    <glyph glyph-name="download" unicode="&#58969;" d="M894.683 384.004h-159.451l-223.234-223.222-223.231 223.222h-159.452l-127.562-255.112v-63.779h1020.494v63.779zM1.752 1.337h1020.494v-63.781h-1020.494v63.781zM799.013 575.331h-223.234v255.113h-127.561v-255.113h-223.232l287.012-286.993z"  horiz-adv-x="1024" />

    
    <glyph glyph-name="search" unicode="&#58896;" d="M672.321 245.951c-131.242-131.242-344.77-131.242-475.985 0-131.242 131.242-131.242 344.742 0 475.961 131.242 131.226 344.77 131.226 475.985 0 131.193-131.242 131.193-344.742 0-475.961l0 0zM269.731 648.501c-90.763-90.747-90.763-238.455-0.003-329.241 90.747-90.747 238.485-90.747 329.241 0 90.747 90.747 90.747 238.455 0 329.198s-238.485 90.834-329.198 0.003l0 0zM931.479 88.34c24.934-24.934 24.934-65.335 0-90.292l-11.306-11.306c-24.934-24.954-65.335-24.954-90.292 0l-231.361 231.413c-24.934 24.954-24.934 65.335 0 90.292l11.306 11.306c24.934 24.954 65.378 24.954 90.292 0l231.361-231.413zM931.479 88.34z"  horiz-adv-x="1024" />

    
    <glyph glyph-name="close" unicode="&#58883;" d="M633.712 384l365.141-365.141c22.405-22.405 22.405-58.73 0-81.14l-40.571-40.571c-22.405-22.405-58.736-22.405-81.14 0l-365.141 365.141-365.141-365.141c-22.405-22.405-58.73-22.405-81.135 0l-40.577 40.571c-22.405 22.411-22.405 58.736 0 81.14l365.141 365.141-365.141 365.141c-22.405 22.399-22.405 58.73 0 81.14l40.577 40.571c22.405 22.405 58.73 22.405 81.135 0l365.141-365.141 365.141 365.141c22.405 22.405 58.736 22.405 81.14 0l40.571-40.571c22.405-22.411 22.405-58.742 0-81.14l-365.141-365.141z"  horiz-adv-x="1024" />

    
    <glyph glyph-name="round-close" unicode="&#58902;" d="M512.001 822.767c-238.496 0-431.835-193.339-431.835-431.835s193.339-431.835 431.835-431.835 431.835 193.339 431.835 431.835-193.339 431.835-431.835 431.835zM720.691 234.444l-52.201-52.201-156.489 156.489-156.49-156.489-52.2 52.201 156.489 156.489-156.489 156.488 52.16 52.2 156.519-156.5 156.501 156.5 52.201-52.2-156.5-156.497 156.499-156.48z"  horiz-adv-x="1024" />

    
    <glyph glyph-name="loading" unicode="&#58923;" d="M875.861333 307.555556c-30.691556 0-55.608889 24.903111-55.608889 55.608889 0 30.677333 24.917333 55.566222 55.608889 55.566222 30.663111 0 55.580444-24.888889 55.580444-55.566222C931.441778 332.458667 906.524444 307.555556 875.861333 307.555556zM769.308444 571.605333c-25.585778 0-46.336 20.736-46.336 46.321778 0 25.585778 20.750222 46.321778 46.336 46.321778s46.336-20.736 46.336-46.321778C815.644444 592.341333 794.894222 571.605333 769.308444 571.605333zM769.308444 177.863111c35.84 0 64.867556-29.041778 64.867556-64.839111 0-35.84-29.027556-64.881778-64.867556-64.881778-35.811556 0-64.867556 29.041778-64.867556 64.881778C704.440889 148.821333 733.496889 177.863111 769.308444 177.863111zM514.531556 613.304889c-61.411556 0-111.175111 49.777778-111.175111 111.175111 0 61.397333 49.763556 111.175111 111.175111 111.175111 61.383111 0 111.160889-49.777778 111.160889-111.175111C625.692444 663.082667 575.914667 613.304889 514.531556 613.304889zM262.058667 516.024889c-54.997333 0-99.584 44.600889-99.584 99.598222s44.586667 99.598222 99.584 99.598222c55.011556 0 99.612444-44.600889 99.612444-99.598222S317.070222 516.024889 262.058667 516.024889zM245.859556 363.164444c0-51.2-41.486222-92.672-92.657778-92.672-51.157333 0-92.643556 41.472-92.643556 92.672 0 51.157333 41.486222 92.657778 92.643556 92.657778C204.373333 455.822222 245.859556 414.321778 245.859556 363.164444zM262.058667 191.758222c44.771556 0 81.066667-36.280889 81.066667-81.066667 0-44.771556-36.295111-81.066667-81.066667-81.066667-44.757333 0-81.066667 36.295111-81.066667 81.066667C180.992 155.491556 217.301333 191.758222 262.058667 191.758222zM516.849778 75.960889c39.651556 0 71.779556-32.156444 71.779556-71.793778 0-39.665778-32.142222-71.822222-71.779556-71.822222-39.665778 0-71.822222 32.156444-71.822222 71.822222C445.041778 43.804444 477.184 75.960889 516.849778 75.960889z"  horiz-adv-x="1024" />

    
    <glyph glyph-name="copy" unicode="&#58907;" d="M128 0 768 0 768-64 128-64 128 0 128 0ZM64 704 128 704 128-64 64-64 64 704 64 704ZM704 832 256 832C192 832 192 766.4 192 766.4L192 128C192 64 256 64 256 64L832 64C896 64 896 128 896 128L896 640 704 832 704 832ZM320 384 768 384 768 320 320 320 320 384 320 384ZM320 512 768 512 768 448 320 448 320 512 320 512ZM320 256 768 256 768 192 320 192 320 256 320 256ZM704 640 704 768 832 640 704 640 704 640Z"  horiz-adv-x="1024" />

    
    <glyph glyph-name="happy-face" unicode="&#58924;" d="M149.399 25.12c-96.371 96.389-149.419 224.483-149.399 360.773 0 136.276 53.087 264.389 149.477 360.741 96.347 96.316 224.491 149.366 360.801 149.366 136.35 0 264.473-53.050 360.865-149.366 198.955-198.939 198.936-522.555 0-721.421-96.41-96.331-224.608-149.42-360.957-149.42-136.291 0-264.435 53.049-360.787 149.328zM195.104 691.665c-83.824-83.751-119.817-181.594-119.817-300.128-0.020-118.548 39.247-234.241 123.037-318.030 83.804-83.731 195.492-128.463 314.018-128.463 118.585 0 225.072 48.003 308.915 131.793 173.006 172.942 180.719 442.916 7.713 615.921-83.824 83.771-200.642 131.22-319.207 131.22-120.126 1.634-230.831-48.54-314.659-132.311zM328.937 246.674c0 0 59.793-95.537 181.23-95.537 121.438 0 201.080 95.537 201.080 95.537 0 0 45.141 0.151 45.122-47.761 0 0-78.269-111.466-246.202-111.466-167.933 0-222.595 111.466-222.595 111.466 0 0-1.654 47.761 41.366 47.761v0zM361.894 549.922c-34.403 0-62.495-27.981-62.495-62.478 0-34.461 28.074-62.443 62.495-62.443 34.572 0 62.496 27.982 62.496 62.443 0 34.497-27.924 62.478-62.496 62.478v0zM682.084 549.922c-34.461 0-62.457-27.981-62.457-62.478 0-34.461 27.996-62.443 62.457-62.443 34.534 0 62.492 27.982 62.492 62.443 0 34.497-27.957 62.478-62.492 62.478v0z"  horiz-adv-x="1025" />

    
    <glyph glyph-name="delete" unicode="&#58891;" d="M128 710.656c0 27.072 22.080 49.024 49.344 49.024h246.656v48.96c0 27.072 22.080 48.96 49.344 48.96h98.688c27.264 0 49.344-21.952 49.344-49.024v-49.024h246.656c27.2 0 49.344-21.952 49.344-49.024v-49.024h-789.376v49.152zM868.032 563.712v-604.224c0-27.072-22.144-49.024-49.344-49.024h-592c-27.264 0-49.344 21.952-49.344 49.024v653.12h690.688l0-48.896zM374.656 465.664c0 27.072-22.144 49.024-49.344 49.024s-49.28-21.952-49.28-49.024v-408.32c0-27.008 22.080-48.96 49.344-48.96s49.344 21.952 49.344 48.96l0 408.32zM572.032 465.664c0 27.072-22.144 49.024-49.344 49.024-27.264 0-49.344-21.952-49.344-49.024v-408.32c0-27.008 22.144-48.96 49.344-48.96 27.2 0 49.344 21.952 49.344 48.96v408.32zM769.344 465.664c0 27.072-22.080 49.024-49.344 49.024s-49.344-21.952-49.344-49.024v-408.32c0-27.008 22.144-48.96 49.344-48.96s49.344 21.952 49.344 48.96v408.32z"  horiz-adv-x="1024" />

    
    <glyph glyph-name="eye" unicode="&#58941;" d="M512 736c-203.648 0-378.752-132.288-448-320 69.248-187.712 244.352-320 448-320s378.752 132.288 448 320c-69.248 187.712-244.352 320-448 320zM512 202.688c-114.048 0-203.648 93.888-203.648 213.312 0 119.488 89.6 213.312 203.648 213.312s203.648-93.888 203.648-213.312c0-119.488-89.6-213.312-203.648-213.312zM512 544c-69.248 0-122.176-55.488-122.176-128 0-72.512 52.928-128 122.176-128s122.176 55.488 122.176 128c0 72.512-52.928 128-122.176 128z"  horiz-adv-x="1024" />

    
    <glyph glyph-name="plane" unicode="&#58962;" d="M446.208-22.784l112.896 154.368-112.896 32.512v-186.88zM47.104 340.48l321.024-97.28 395.264 335.616-306.432-361.472 343.040-105.984 176.64 679.168-929.536-450.048zM47.104 340.48z"  horiz-adv-x="1024" />

    
    <glyph glyph-name="preview" unicode="&#58925;" d="M895.274 831.496h-766.548c-35.281 0-63.879-28.598-63.879-63.879v-638.631c0-35.281 28.598-63.882 63.879-63.882h766.547c35.277 0 63.879 28.601 63.879 63.882v638.631c0.001 35.281-28.601 63.879-63.878 63.879zM895.274 128.985l-248.295 261.917-122.606-106.486-183.987 170.356-183.974-170.356-27.686-31.619v514.82h766.547l0.001-638.632zM732.796 507.2c54.009 0 97.834 43.901 97.834 97.984 0 54.127-43.825 98.004-97.834 98.004-54.035 0-97.834-43.877-97.834-98.004-0-54.088 43.8-97.984 97.834-97.984zM927.43-63.495h-830.86c-17.447 0-31.722 14.275-31.722 31.722v0c0 17.447 14.275 31.722 31.722 31.722h830.86c17.447 0 31.722-14.275 31.722-31.722v0c0-17.447-14.275-31.722-31.722-31.722z"  horiz-adv-x="1024" />

    
    <glyph glyph-name="clock" unicode="&#58914;" d="M1017.679 701.567l-232.612 195.193-65.233-77.369 232.612-195.193 65.233 77.369zM303.66 819.39l-64.726 77.369-232.612-194.687 65.233-77.369 232.107 194.687zM537.284 586.272h-75.852v-303.407l240.197-144.118 37.926 62.198-202.272 119.846v265.482zM512 788.543c-251.323 0-455.111-203.789-455.111-455.111 0-251.323 203.283-455.111 455.111-455.111 251.323 0 455.111 203.789 455.111 455.111 0 251.323-203.789 455.111-455.111 455.111v0zM512-20.543c-195.698 0-353.975 158.277-353.975 353.975s158.277 353.975 353.975 353.975c195.698 0 353.975-158.277 353.975-353.975 0-195.698-158.277-353.975-353.975-353.975v0z"  horiz-adv-x="1024" />

    
    <glyph glyph-name="caret-down" unicode="&#58881;" d="M219.411692 530.274462 804.588308 530.274462 512 237.686154Z"  horiz-adv-x="1024" />

    
    <glyph glyph-name="warn" unicode="&#58906;" d="M993.903 94.876l-394.252 665.047c-48.213 81.312-127.025 81.312-175.239 0l-394.252-665.047c-48.213-81.388-8.769-147.781 87.581-147.781h788.58c96.351 0.001 135.757 66.395 87.582 147.781zM457.881 571.226c14.17 14.921 32.177 22.38 54.149 22.38 21.982 0 39.982-7.386 54.16-22.081 14.083-14.734 21.127-33.159 21.127-55.314 0-19.060-29.411-159.232-39.213-261.207h-70.847c-8.607 101.975-40.516 242.146-40.516 261.207 0 21.821 7.056 40.172 21.138 55.017zM565.186 86.334c-14.896-14.138-32.627-21.185-53.153-21.185-20.516 0-38.256 7.050-53.155 21.185-14.858 14.098-22.25 31.183-22.25 51.249 0 19.956 7.392 37.226 22.25 51.697 14.897 14.471 32.639 21.709 53.155 21.709 20.526 0 38.257-7.235 53.153-21.709 14.859-14.471 22.259-31.742 22.259-51.697 0-20.069-7.402-37.151-22.259-51.249z"  horiz-adv-x="1024" />

    
    <glyph glyph-name="arrow-left" unicode="&#58882;" d="M559.356 766.805l83.722-83.394-390.725-389.153-83.722 83.394 390.726 389.153zM559.356 766.805zM168.63 377.651l83.722 83.395 390.73-389.163-83.726-83.39-390.726 389.159zM168.63 377.651zM598.819 436.617c32.702 0 59.206-26.399 59.206-58.966 0-32.562-26.503-58.961-59.206-58.961-32.692 0-59.204 26.399-59.204 58.961 0 32.567 26.513 58.966 59.204 58.966l0 0zM598.819 436.617zM796.169 436.617c32.692 0 59.198-26.399 59.198-58.966 0-32.562-26.506-58.961-59.198-58.961-32.702 0-59.21 26.399-59.21 58.961 0 32.567 26.508 58.966 59.21 58.966l0 0zM796.169 436.617z"  horiz-adv-x="1024" />

    
    <glyph glyph-name="power-off" unicode="&#59122;" d="M508.296-128c-62.813 0-123.776 12.323-181.19 36.596-27.59 11.671-54.191 26.112-79.081 42.927-24.634 16.64-47.802 35.747-68.852 56.809-21.062 21.050-40.169 44.218-56.809 68.852-16.815 24.89-31.267 51.491-42.915 79.081-24.285 57.414-36.608 118.377-36.608 181.19 0 62.813 12.323 123.776 36.608 181.19 11.66 27.59 26.1 54.191 42.915 79.081 16.64 24.634 35.747 47.802 56.809 68.852 18.176 18.176 47.651 18.176 65.827 0 18.176-18.176 18.176-47.651 0-65.827-34.211-34.199-61.068-74.031-79.825-118.365-19.398-45.882-29.242-94.639-29.242-144.931 0-50.281 9.844-99.049 29.242-144.931 18.758-44.335 45.615-84.154 79.825-118.365 34.199-34.211 74.031-61.068 118.365-79.825 45.882-19.398 94.65-29.242 144.931-29.242 50.281 0 99.049 9.844 144.931 29.242 44.335 18.758 84.154 45.615 118.365 79.825 34.211 34.199 61.068 74.031 79.825 118.365 19.398 45.882 29.242 94.65 29.242 144.931 0 50.292-9.844 99.049-29.242 144.931-18.758 44.335-45.615 84.154-79.825 118.377-18.176 18.176-18.176 47.651 0 65.815 18.176 18.176 47.651 18.176 65.827 0 21.062-21.050 40.169-44.218 56.809-68.852 16.815-24.89 31.255-51.491 42.915-79.081 24.285-57.414 36.608-118.377 36.608-181.19 0-62.813-12.323-123.776-36.608-181.19-11.671-27.59-26.1-54.191-42.915-79.081-16.64-24.634-35.747-47.802-56.809-68.852-21.050-21.062-44.218-40.169-68.852-56.809-24.89-16.815-51.491-31.267-79.081-42.927-57.414-24.273-118.377-36.596-181.19-36.596v0zM554.842 384v465.455c0 25.705-20.841 46.545-46.545 46.545-25.705 0-46.545-20.841-46.545-46.545v-465.455c0-25.705 20.841-46.545 46.545-46.545 25.705 0 46.545 20.841 46.545 46.545v0z"  horiz-adv-x="1024" />

    
    <glyph glyph-name="click" unicode="&#58968;" d="M455.68 491.968l91.264-529.152c0 0 67.456 69.44 123.136 117.888l122.432-163.904c4.928-6.656 15.68-7.104 23.872-1.088l52.288 38.208c8.256 6.016 10.944 16.32 5.952 22.976l-119.104 159.424c62.208 25.088 164.672 53.632 164.672 53.632l-464.512 302.016zM308.352 247.616l-135.872-99.328c-20.544-15.040-24.256-43.968-8-65.408 16.256-21.376 46.272-27.008 66.752-12.032l135.872 99.328c20.992 15.36 24.512 45.504 8.256 66.88-16.192 21.44-46.016 25.92-67.008 10.56zM949.696 657.024c-16.256 21.376-45.632 26.176-67.072 10.496l-134.912-98.688c-21.44-15.68-25.152-44.672-8.896-66.048 16.256-21.376 46.272-27.008 67.712-11.328l134.912 98.688c21.44 15.68 24.512 45.504 8.256 66.88zM319.296 759.168c-15.936 20.928-45.248 25.728-66.752 10.048-20.096-14.72-24.256-43.968-8.32-64.896l105.536-138.816c15.936-20.992 45.696-25.408 65.792-10.688 21.44 15.68 25.216 44.608 9.28 65.6l-105.536 138.752zM585.792 594.24c26.176-4.224 50.24 13.376 53.632 39.232l21.184 167.808c3.392 25.792-14.976 49.984-41.536 54.656-26.176 4.224-50.24-13.376-53.632-39.168l-21.248-167.872c-3.264-25.856 15.104-49.984 41.6-54.656zM329.728 406.976c2.56 25.92-15.808 50.048-41.536 54.656l-170.048 27.968c-27.072 3.584-50.688-13.696-53.632-39.232-3.904-26.944 14.464-51.072 41.536-54.656l170.048-27.968c25.728-4.48 49.408 12.8 53.632 39.232z"  horiz-adv-x="1024" />

    
    <glyph glyph-name="folder" unicode="&#58961;" d="M790.666 44.966l167.809 417.813-727.162-0-167.805-417.813h727.158zM175.378 515.002l-111.87-470.036v678.942h251.71l111.873-104.453h363.575v-104.453l-615.288 0z"  horiz-adv-x="1024" />

    
    <glyph glyph-name="correct" unicode="&#58890;" d="M951.428 612.313l-536.159-543.957-342.697 347.683 85.859 87.694 257.471-261.217 450.577 457.129 84.949-87.332z"  horiz-adv-x="1024" />

    
    <glyph glyph-name="choose" unicode="&#58887;" d="M943.698 103.688l-369.381 369.38c36.332 92.85 16.148 203.865-58.535 278.549-80.739 80.739-201.847 96.887-298.734 50.461l175.607-175.607-123.126-123.127-175.607 175.608c-46.424-96.887-30.277-217.995 50.461-298.734 74.683-74.683 185.699-94.868 278.549-58.535l369.38-369.38c16.148-16.148 42.387-16.148 56.517 0l94.868 94.868c16.149 14.129 16.149 40.369 0.001 56.517z"  horiz-adv-x="1024" />

    
    <glyph glyph-name="help" unicode="&#58927;" d="M512-96c-265.097 0-480 214.903-480 480s214.903 480 480 480c265.097 0 480-214.903 480-480 0-265.097-214.903-480-480-480zM512 795.428c-227.223 0-411.428-184.206-411.428-411.428s184.206-411.428 411.428-411.428c227.223 0 411.428 184.206 411.428 411.428 0 227.223-184.206 411.428-411.428 411.428zM634.72 393.851c-10.126-10.285-28.32-27.611-54.56-51.977-7.246-6.857-13.074-12.892-17.44-18.103-4.366-5.188-7.634-9.943-9.76-14.263-2.125-4.32-3.794-8.64-4.96-12.96-1.165-4.32-2.926-11.908-5.28-22.765-4.045-23.017-16.754-34.537-38.080-34.537-11.086 0-20.435 3.772-28 11.291-7.566 7.52-11.36 18.72-11.36 33.554 0 18.606 2.766 34.697 8.32 48.32 5.555 13.623 12.914 25.577 22.080 35.886 9.166 10.285 21.554 22.514 37.12 36.685 13.645 12.412 23.52 21.76 29.6 28.069 6.080 6.308 11.2 13.348 15.36 21.098 4.16 7.748 6.24 16.16 6.24 25.235 0 17.714-6.354 32.662-19.040 44.845-12.685 12.16-29.075 18.262-49.12 18.262-23.474 0-40.754-6.148-51.84-18.423-11.086-12.297-20.48-30.4-28.16-54.308-7.246-25.028-21.006-37.532-41.28-37.532-11.954 0-22.034 4.366-30.24 13.12-8.206 8.732-12.32 18.218-12.32 28.388 0 21.052 6.515 42.354 19.52 63.932 13.006 21.6 32 39.474 56.96 53.646 24.96 14.171 54.080 21.257 87.36 21.257 30.925 0 58.24-5.92 81.92-17.76 23.68-11.84 41.965-27.954 54.88-48.343 12.914-20.365 19.36-42.515 19.36-66.423 0-18.812-3.68-35.315-11.040-49.486-7.36-14.171-16.115-26.4-26.24-36.709zM508.16 209.029c13.44 0 24.755-4.778 33.92-14.286 9.166-9.532 13.76-21.257 13.76-35.2 0-15.497-4.8-27.68-14.4-36.548-9.6-8.845-20.686-13.28-33.28-13.28-13.006 0-24.366 4.366-34.080 13.12-9.714 8.754-14.56 20.983-14.56 36.709 0 13.942 4.686 25.669 14.080 35.2 9.395 9.508 20.915 14.286 34.56 14.286z"  horiz-adv-x="1024" />

    
    <glyph glyph-name="arrow-right" unicode="&#58885;" d="M464.644 1.195l-83.722 83.394 390.725 389.153 83.722-83.394-390.726-389.153zM464.644 1.195zM855.37 390.349l-83.722-83.395-390.73 389.163 83.726 83.39 390.726-389.159zM855.37 390.349zM425.181 331.383c-32.702 0-59.206 26.399-59.206 58.966 0 32.562 26.503 58.961 59.206 58.961 32.692 0 59.204-26.398 59.204-58.961 0-32.567-26.513-58.966-59.204-58.966l0 0zM425.181 331.383zM227.831 331.383c-32.692 0-59.198 26.399-59.198 58.966 0 32.562 26.506 58.961 59.198 58.961 32.702 0 59.21-26.399 59.21-58.961 0-32.567-26.508-58.966-59.21-58.966l0 0zM227.831 331.383z"  horiz-adv-x="1024" />

    
    <glyph glyph-name="radio" unicode="&#58893;" d="M512.001 896c282.771 0 511.992-229.234 511.992-511.992 0-282.773-229.222-512.007-511.992-512.007-282.773 0-511.993 229.234-511.993 512.007 0 282.758 229.22 511.992 511.993 511.992zM935.924 384.008c0 234.122-189.788 423.924-423.923 423.924-234.137 0-423.925-189.802-423.925-423.924 0-234.137 189.788-423.939 423.925-423.939 234.135 0 423.923 189.801 423.923 423.939z"  horiz-adv-x="1024" />

    
    <glyph glyph-name="checkbox" unicode="&#58897;" d="M788.777 811.855h-553.594c-107.137 0-150.979-51.375-150.979-151.008v-553.696c0-97.813 52.050-151.008 150.979-151.008h553.594c112.158 0 150.979 46.355 150.979 151.008l-0 553.696c0 99.633-51.133 151.008-150.979 151.008zM1023.884 715.289v-662.578c0-99.769-80.982-180.711-180.678-180.711h-662.454c-99.805 0-180.677 80.942-180.677 180.711v662.578c0 99.879 80.873 180.711 180.677 180.711h662.454c99.695 0 180.678-80.833 180.678-180.711z"  horiz-adv-x="1024" />

    
    <glyph glyph-name="radio-check" unicode="&#58911;" d="M512.002 676.008c161.279 0 292.014-130.736 292.014-292.001 0-161.28-130.735-292.016-292.014-292.016-161.28 0-292.002 130.736-292.002 292.016-0.001 161.264 130.722 292.001 292.002 292.001zM512.002 896c282.771 0 511.992-229.235 511.992-511.994 0-282.773-229.223-512.007-511.992-512.007-282.774 0-511.995 229.236-511.995 512.007 0 282.759 229.222 511.994 511.995 511.994zM512.002-39.933c234.135 0 423.924 189.802 423.924 423.94 0 234.123-189.789 423.926-423.924 423.926-234.138 0-423.927-189.802-423.927-423.926 0-234.141 189.789-423.94 423.927-423.94z"  horiz-adv-x="1024" />

    
    <glyph glyph-name="user" unicode="&#58916;" d="M554.556235 640.714779 554.556235 640.714779zM299.269991 640.714779 299.269991 640.714779zM938.52835 896 938.52835 896zM767.4336 896 767.4336 896zM171.080423 896 171.080423 896zM-0.010233 896-0.010233 896zM799.682072 425.766242c-37.514405 0-104.398722-94.611821-234.896868-94.611821-8.188496 0-15.471366 0-21.201881 0-130.500193 0-197.383486 94.611821-234.897891 94.611821-42.413995 0-218.585367-9.785877-218.585367-373.549741 0-202.273866 181.069939-176.172395 194.117093-176.172395 13.050224 0 269.593088-1.101077 269.593088-1.101077l0.369414 7.111978 0.375553-7.111978c0 0 256.539794 1.101077 269.588995 1.101077 13.05534 0 194.120163-26.101471 194.120163 176.172395C1018.265392 415.980365 842.095044 425.766242 799.682072 425.766242L799.682072 425.766242zM554.556235 638.668167m-255.283174 0a249.469 249.469 0 1 0 510.566348 0 249.469 249.469 0 1 0-510.566348 0Z"  horiz-adv-x="1066" />

    
    <glyph glyph-name="move" unicode="&#58921;" d="M986.488153 677.092291l0-583.755254c0 0 0-72.971965-72.971965-72.971965l-656.727219 0c0 0-72.971965 0-72.971965 72.971965L183.817004 821.204503c0 0 0 74.79345 72.971965 74.79345l510.783289 0L986.488153 677.092291zM767.573281 677.092291l145.94393 0-145.94393 145.94393L767.573281 677.092291zM662.29554 283.538961l197.999516 161.887041-197.999516 161.897274 0-115.807562-350.328877 0 0-94.174869 350.328877 0L662.29554 283.538961zM110.856295-52.596659l729.688951 0 0-72.971965-729.688951 0 0 72.971965ZM110.856295-52.596659 110.856295-125.568624 37.88433-125.568624 37.88433 750.064256 110.856295 750.064256Z"  horiz-adv-x="1024" />

    
    <glyph glyph-name="import" unicode="&#58884;" d="M832.004-64.514h-640c-105.878 0-192.004 86.157-192.004 192.075l-0 384.158c0 35.391 28.623 64.026 63.993 64.026 35.38 0 64.007-28.636 64.007-64.026v-384.158c0-35.265 28.689-64.022 64.004-64.022h640c35.315 0 64.002 28.757 64.002 64.022l-0 384.158c0 35.391 28.622 64.026 64.004 64.026 35.37 0 63.99-28.636 63.99-64.026v-384.158c-0-105.917-86.121-192.075-191.996-192.075zM489.377 278.25c12.439-12.443 32.813-12.443 45.252 0l210.751 210.834c12.437 12.446 8.246 22.635-9.375 22.635h-64.006c-17.618 0-31.998 14.382-31.998 32.017v128.050c0 17.629-14.368 32.010-31.999 32.010h-192.002c-17.62 0-31.999-14.381-31.999-32.010v-128.049c0-17.634-14.377-32.017-32-32.017h-64.004c-17.619 0-21.811-10.189-9.369-22.635l210.75-210.835zM384.001 799.838c0 17.626 14.315 32.010 31.999 32.010 17.693 0 32.002-14.384 32.002-32.010 0-17.76-14.31-32.018-32.002-32.018-17.684-0.001-31.999 14.256-31.999 32.018zM576.005 799.838c0 17.626 14.316 32.010 31.997 32.010 17.691 0 31.999-14.384 31.999-32.010 0-17.76-14.308-32.018-31.999-32.018-17.681-0.001-31.997 14.256-31.997 32.018zM416 831.848h192.002v-64.027h-192.002v64.027z"  horiz-adv-x="1025" />

    
    <glyph glyph-name="mail" unicode="&#58933;" d="M927.148 256.639l-198.502 154.471 193.108 151.492c21.719-40.378 34.033-86.553 34.033-135.612v-45.285c0-44.841-10.284-87.268-28.639-125.066zM668.937 713.841h-317.050c-85.585 0-162.429-37.494-214.983-96.951l341.017-265.28s18.084-15.967 34.060-15.967c15.967 0 33.772 15.967 33.772 15.967l338.167 265.289c-52.563 59.456-129.399 96.942-214.983 96.942zM351.887 94.854c-89.481 0-169.402 40.98-221.999 105.204l216.491 169.838 100.637-78.309s42.627-32.447 64.965-32.447c22.329 0 64.625 32.7 64.625 32.7l99.138 77.768 216.265-168.242c-52.58-64.974-132.98-106.512-223.071-106.512h-317.051zM65.045 381.705v45.285c0 48.981 12.28 95.094 33.929 135.429l194.555-151.396-199.008-156.11c-18.87 38.226-29.476 81.271-29.476 126.792z"  horiz-adv-x="1024" />

    
    <glyph glyph-name="sms" unicode="&#58935;" d="M955.062 102.979s32.001 5.422 42.935 7.629c-64.169-42.637-205.401-44.922-321.891 50.914-2.436-0.079-4.887-0.132-7.34-0.132h-340.689c-123.337 0-223.321 99.984-223.321 223.303v90.378c0 123.337 99.984 223.313 223.321 223.313h340.69c123.337 0 223.303-99.975 223.303-223.313v-90.378c0-66.507-29.092-126.219-75.226-167.133 50.862-78.917 93.041-130.896 138.217-114.583zM772.785 429.897c0 38.679-30.709 70.031-68.581 70.031-37.89 0-68.607-31.351-68.607-70.031 0-38.681 30.717-70.041 68.607-70.041 37.872 0 68.581 31.359 68.581 70.041zM567.007 429.897c0 38.679-30.701 70.031-68.59 70.031-37.881 0-68.59-31.351-68.59-70.031 0-38.681 30.709-70.041 68.589-70.041 37.891 0 68.59 31.359 68.59 70.041zM361.228 429.897c0 38.679-30.7 70.031-68.59 70.031-37.872 0-68.589-31.351-68.589-70.031 0-38.681 30.718-70.041 68.589-70.041 37.89 0 68.59 31.359 68.59 70.041z"  horiz-adv-x="1024" />

    
    <glyph glyph-name="more" unicode="&#58936;" d="M400 784c0-61.856 50.144-112 112-112s112 50.144 112 112c0 61.856-50.144 112-112 112-61.856 0-112-50.144-112-112zM400-16c0-61.856 50.144-112 112-112s112 50.144 112 112c0 61.856-50.144 112-112 112-61.856 0-112-50.144-112-112zM400 384c0-61.856 50.144-112 112-112s112 50.144 112 112c0 61.856-50.144 112-112 112-61.856 0-112-50.144-112-112z"  horiz-adv-x="1024" />

    
    <glyph glyph-name="cash" unicode="&#58977;" d="M512 881.103c-274.566 0-497.103-222.535-497.103-497.103s222.535-497.103 497.103-497.103 497.103 222.535 497.103 497.103-222.535 497.103-497.103 497.103zM512-2.636c-213.534 0-386.636 173.104-386.636 386.636s173.104 386.636 386.636 386.636c213.534 0 386.636-173.104 386.636-386.636 0-213.534-173.104-386.636-386.636-386.636zM705.372 638.738c-6.971 6.848-16.535 11.074-27.087 11.074-0.516 0-1.030-0.012-1.541-0.031-0.415 0.023-0.99 0.036-1.568 0.036-10.592 0-20.211-4.158-27.318-10.929-7.386-7.221-15.946-18.93-25.778-35.058l-113.23-177.409-101.3 167.248-11.93 20.492c-12.254 20.937-28.329 38.325-47.415 51.707 29.011-25.826 20.711-20.135 11.179-17.312 3.189-0.603-3.783 1.241-11.184 1.241-0.339 0-0.676-0.003-1.013-0.013-0.416 0.020-0.963 0.033-1.514 0.033-10.464 0-19.97-4.093-27.010-10.763-6.793-6.396-11.033-15.473-11.033-25.538 0-0.201 0.001-0.4 0.004-0.601 0-8.143 1.436-15.655 4.364-22.394 2.928-6.738 7.513-15.299 13.863-25.573l100.967-166.53h-44.573c-32.974 0-49.436-10.771-49.436-32.256 0-21.983 16.46-32.974 49.436-32.974h79.261v-50.483h-79.261c-32.974 0-49.436-10.992-49.436-32.974 0-21.485 16.46-32.256 49.436-32.256h79.261v-28.059c0-47.445 15.798-71.196 47.335-71.196 32.036 0 48.054 23.751 48.054 71.196v28.059h78.875c33.197 0 49.766 10.771 49.766 32.256 0 21.983-16.57 32.974-49.766 32.974h-78.875v50.483h78.875c33.197 0 49.766 10.992 49.766 32.974 0 21.485-16.57 32.256-49.766 32.256h-44.517l104.834 164.431c19.543 28.679 33.807 62.589 40.527 99.141-21.623-65.738-20.199-59.49-20.199-52.908 0 0.134 0 0.271-0.001 0.405 0.025 0.513 0.039 1.142 0.039 1.771 0 10.679-4.227 20.371-11.099 27.493z"  horiz-adv-x="1024" />

    
    <glyph glyph-name="refresh" unicode="&#58926;" d="M698.845 145.374c-52.907-37.137-114.961-55.637-178.244-54.886-8.397 0.137-16.657 0.751-24.917 1.365-3.345 0.341-6.69 0.887-10.035 1.365-6.554 0.819-12.902 1.638-19.251 2.935-3.891 0.683-7.782 1.775-11.537 2.662-6.212 1.365-12.356 2.731-18.432 4.506-2.867 1.092-5.598 1.98-8.465 3.14-7.031 2.185-13.995 4.642-20.685 7.441-1.502 0.683-3.004 1.229-4.506 1.843-7.851 3.618-15.633 7.305-23.211 11.264-0.273 0.205-0.683 0.341-0.956 0.546-25.532 14.063-48.811 31.334-69.291 51.951-0.341 0.341-0.614 0.751-1.024 1.092-6.349 6.349-12.425 12.902-18.159 20.002-1.161 1.434-2.321 2.867-3.55 4.574-41.574 52.019-66.628 117.897-66.628 189.508h80.145l-128.137 192.171-128.137-192.171h80.009c0-84.173 26.351-162.27 70.929-226.918 0.546-0.956 0.887-1.98 1.502-2.799 4.574-6.69 9.762-12.766 14.677-18.91 1.911-2.253 3.55-4.574 5.53-7.1 7.236-8.738 15.087-17.067 23.006-25.259 0.819-0.819 1.502-1.502 2.185-2.253 26.829-26.897 57.071-49.425 90.044-67.584 0.887-0.478 1.638-0.887 2.662-1.434 9.489-5.12 19.251-9.83 29.082-14.131 2.526-1.092 4.915-2.185 7.305-3.209 8.533-3.618 17.203-6.622 25.941-9.626 4.164-1.434 8.192-2.799 12.425-4.164 7.646-2.185 15.428-4.164 23.347-5.939 5.257-1.229 10.308-2.594 15.701-3.55 2.185-0.546 4.233-1.229 6.417-1.434 7.509-1.365 14.95-2.048 22.323-2.935 2.731-0.478 5.393-0.956 8.055-1.229 13.38-1.297 26.692-2.116 40.004-2.116 81.306 0 160.768 24.849 228.898 72.636 21.709 15.223 27.034 45.261 11.878 66.833-15.292 21.914-45.193 27.17-66.901 11.81M924.535 394.684c0 83.968-26.010 161.997-70.383 226.304-0.683 1.092-1.092 2.253-1.638 3.209-5.734 7.919-11.605 15.292-17.681 22.733-0.683 0.819-1.365 1.775-1.98 2.731-40.823 49.152-91.819 87.313-149.504 112.23-1.707 0.683-3.14 1.434-4.847 2.116-9.284 3.823-18.705 7.1-28.331 10.377-3.277 1.092-6.758 2.321-10.172 3.345-8.329 2.526-16.657 4.574-25.122 6.554-4.71 1.024-9.489 2.253-14.199 3.209-2.321 0.41-4.437 1.092-6.895 1.57-6.349 1.024-12.561 1.638-18.91 2.389-4.437 0.478-8.67 1.161-13.107 1.638-10.65 1.024-21.231 1.434-31.812 1.638-1.911 0-3.823 0.273-5.734 0.273-0.341 0-0.683-0.068-1.024-0.137-81.237-0.068-160.563-24.576-228.557-72.294-21.709-15.155-27.034-45.124-11.742-66.97 15.087-21.641 45.193-26.965 66.97-11.674 52.497 36.727 113.801 55.433 176.674 54.818 9.011-0.068 18.022-0.478 26.761-1.365 2.731-0.205 5.325-0.614 8.055-1.024 7.236-0.887 14.404-1.843 21.504-3.345 3.072-0.546 6.212-1.365 9.148-2.048 7.031-1.57 13.858-3.209 20.617-5.257 2.253-0.614 4.301-1.365 6.349-2.185 7.851-2.526 15.497-5.188 22.869-8.329 0.819-0.205 1.57-0.819 2.321-1.092 44.851-19.251 84.105-48.879 114.825-86.016 0.068-0.137 0.205-0.41 0.478-0.614 43.145-52.565 69.086-119.671 69.154-192.785h-80.213l128.341-192.239 128 192.239h-80.213z"  horiz-adv-x="1024" />

    
    <glyph glyph-name="mms" unicode="&#58971;" d="M902.9357421875001 529.62822265625C582.5304687500002 637.0068359375 469.60068359375 310.69794921875007 323.45351562499997 310.69794921875007 187.92089843749994 310.69794921875007 118.25 391.71816406249997 118.25 391.71816406249997v81.57744140624999c0 124.04091796875001 100.55478515625 224.5869140625 224.595703125 224.5869140625h342.63544921875c104.586328125 0.0008789062499999999 192.46552734374998-71.48232421875001 217.45458984375-168.254296875z m-509.33408203125003-20.303613281249998c0 40.3154296875-32.678613281249994 72.99404296875001-72.99492187500002 72.99404296875001-40.3154296875 0-72.99404296875001-32.678613281249994-72.99404296875001-72.99404296875001 0-40.306640625 32.678613281249994-72.9861328125 72.99404296875001-72.9861328125 40.3154296875 0 72.99492187500002 32.6794921875 72.99492187500002 72.9861328125zM834.4047851562502 214.31533203125002c51.15234375-79.36787109375001 93.571875-131.642578125 139.00517578125-115.2369140625 0 0 32.1837890625 5.45361328125 43.17978515625 7.67197265625-64.53544921875002-42.879199218749996-206.57285156249998-45.17666015625001-323.7275390625 51.20595703125-2.4486328125-0.07910156249999999-4.914843749999999-0.1318359375-7.38017578125-0.1318359375H342.8465820312499c-103.7109375 0-190.99775390624998 70.2896484375-216.826171875 165.82412109375 0 0 58.95791015625-65.40205078125 201.853125-65.40205078125 196.22197265625 0 261.64072265625 328.35146484374997 582.0547851562501 220.981640625h0.053613281250000006c0.05273437499999999-1.9713867187499998 0.07910156249999999-3.9515625000000005 0.07910156249999999-5.93173828125v-90.89384765625c-0.0017578124999999998-66.88740234375-29.259667968749998-126.94130859375001-75.65625-168.0873046875z"  horiz-adv-x="1024" />

    
    <glyph glyph-name="profile" unicode="&#58973;" d="M956.25-125.504h-892.5c-35.237 0-63.75 28.512-63.75 63.75v63.75c25.71 152.278 147.484 273.178 296.338 307.793-25.961 39.905-41.338 87.282-41.338 138.457v191.25c0 140.823 114.177 255 255 255s255-114.177 255-255v-191.25c0-51.175-15.378-98.552-41.338-138.457 148.855-34.615 270.628-155.515 296.338-307.793v-63.75c0-35.238-28.513-63.75-63.75-63.75zM637.5 639.496c0 70.41-57.090 127.5-127.5 127.5s-127.5-57.090-127.5-127.5v-191.25c0-70.41 57.090-127.5 127.5-127.5s127.5 57.090 127.5 127.5v191.25zM637.5 193.246h-255c-118.659 0-217.522-81.432-245.973-191.25h746.946c-28.45 109.818-127.314 191.25-245.973 191.25z"  horiz-adv-x="1024" />

    
    <glyph glyph-name="setting" unicode="&#58975;" d="M1020.32454 318.004935V445.43278H854.612398c-9.324013 50.652825-29.567592 97.481309-58.189818 137.96747l93.064618 80.948388-77.991628 96.355447-103.593275-90.105866c-39.466004 27.007727-84.746801 46.139404-133.578701 55.128352V891.436718H446.892758v-165.710147c-48.8319-8.988947-94.112698-28.119628-133.579699-55.127354l-103.594272 90.104868-77.990631-96.355447 93.064619-80.948388c-28.62123-40.486161-48.864808-87.314645-58.189819-137.96747H0.888819v-127.428842h165.710148c9.324013-50.654819 29.568589-97.484301 58.191813-137.969464l-93.063621-80.946393 77.990631-96.35445L313.313059 92.838499c39.466004-27.006729 84.747799-46.13741 133.578701-55.12536v-165.713139h127.430837V37.710148c48.8319 8.988947 94.112698 28.119628 133.578701 55.127354l103.594272-90.103871 77.991628 96.35445-93.065615 80.94739c28.622227 40.486161 48.866803 87.315642 58.190815 137.969464h165.712142zM510.608176 148.515322c-128.787056 0-233.203038 104.417976-233.203038 233.204034 0 128.785062 104.415981 233.20204 233.203038 233.202041 128.786059 0 233.20204-104.416978 233.20204-233.202041 0-128.786059-104.415981-233.204035-233.20204-233.204034z"  horiz-adv-x="1024" />

    
    <glyph glyph-name="export" unicode="&#58895;" d="M747.008 500.224c-29.696 110.592-125.44 220.16-251.392 220.16-145.92 0-250.88-101.888-261.12-264.192-91.648 0-171.008-66.048-171.008-167.936s81.92-240.64 167.936-240.64h560.128c106.496 2.048 167.936 152.576 167.936 268.288 0.512 117.248-56.832 222.72-212.48 184.32zM678.4 317.952l-159.232-155.136c-2.048-2.048-4.608-3.072-7.68-3.072s-5.632 1.024-7.68 3.072l-159.232 155.136c-1.024 1.024-1.536 2.56-1.024 4.096 0.512 1.536 2.048 2.56 3.584 2.56h102.912v159.744c0 3.072 1.024 6.144 3.072 8.192s5.12 3.584 7.68 3.584h100.864c3.072 0 5.632-1.024 7.68-3.584 2.048-2.048 3.072-5.12 3.072-8.192v-159.744h102.912c1.536 0 3.072-1.024 3.584-2.56 1.024-1.536 0.512-3.072-0.512-4.096z"  horiz-adv-x="1024" />

    
    <glyph glyph-name="reset" unicode="&#58922;" d="M576 762.557v69.443l-256-160 256-160v120.259c128-29.251 224-143.488 224-280.259 0-158.781-129.213-288-288-288s-288 129.219-288 288c0 35.395-28.605 64-64 64s-64-28.605-64-64c0-229.381 186.624-416 416-416s416 186.619 416 416c0 207.555-153.027 379.648-352 410.557z"  horiz-adv-x="1024" />

    
    <glyph glyph-name="classic-loading" unicode="&#58886;" d="M476.16 793.6h71.68v-204.8h-71.68v204.8zM685.761 756.64l62.077-35.84-102.4-177.362-62.077 35.84 102.4 177.362zM848.8 619.832l35.84-62.077-177.362-102.4-35.84 62.077 177.362 102.4zM921.6 419.84v-71.68h-204.8v71.68h204.8zM884.64 210.236l-35.84-62.077-177.362 102.4 35.84 62.077 177.362-102.4zM747.853 47.2l-62.077-35.84-102.4 177.362 62.077 35.84 102.4-177.362zM547.84-25.6h-71.68v204.8h71.68v-204.8zM338.224 11.36l-62.077 35.84 102.4 177.362 62.077-35.84-102.4-177.362zM175.2 148.159l-35.84 62.077 177.362 102.4 35.84-62.077-177.362-102.4zM102.4 348.16v71.68h204.8v-71.68h-204.8zM139.36 557.755l35.84 62.077 177.362-102.4-35.84-62.077-177.362 102.4zM276.163 720.8l62.077 35.84 102.4-177.362-62.077-35.84-102.4 177.362z"  horiz-adv-x="1024" />

    
    <glyph glyph-name="fanhui" unicode="&#58888;" d="M532.526499-8.817574L139.506311 384.202615 532.526499 777.222803c12.258185 12.258185 12.432147 32.892131-0.187265 45.51052-12.707416 12.707416-32.995485 12.703323-45.511543 0.187265L75.166957 411.260877c-7.120165-7.120165-10.163477-17.065677-8.990768-26.624381-1.500167-9.755178 1.5104-20.010753 8.990768-27.491121l411.660734-411.660734c12.258185-12.258185 32.892131-12.432147 45.511543 0.187265 12.707416 12.707416 12.7023 32.995485 0.187265 45.51052z"  horiz-adv-x="1024" />

    
    <glyph glyph-name="gengduo" unicode="&#58889;" d="M492.675886-8.817574L885.696074 384.202615 492.675886 777.222803c-12.258185 12.258185-12.432147 32.892131 0.187265 45.51052 12.707416 12.707416 32.995485 12.703323 45.511543 0.187265l411.660734-411.660734c7.120165-7.120165 10.163477-17.065677 8.990768-26.624381 1.500167-9.755178-1.5104-20.010753-8.990768-27.491121L538.374694-54.515359c-12.258185-12.258185-32.892131-12.432147-45.511543 0.187265-12.707416 12.707416-12.703323 32.995485-0.187265 45.51052z"  horiz-adv-x="1024" />

    
    <glyph glyph-name="xiajiantou" unicode="&#58892;" d="M65.582671 607.208665l446.417329-446.41733 446.417329 446.41733z"  horiz-adv-x="1024" />

    
    <glyph glyph-name="youjiantou" unicode="&#58894;" d="M288.791335 830.417329l446.41733-446.417329-446.41733-446.417329z"  horiz-adv-x="1024" />

    
    <glyph glyph-name="checkbox-check" unicode="&#58978;" d="M401.97 275.89l-161.52 154.86-66.11-71.98 264.52-300.23s99.041 195.64 213.060 364.92c88.020 130.64 197.74 245.020 197.74 245.020l-22.9 65.2s-130.109-92.48-235.55-206.13c-107.020-115.21-189.24-251.66-189.24-251.66zM1022.010 715.61v-661.42c0-99.591-80.84-180.391-180.359-180.391h-661.291c-99.63 0.001-180.36 80.801-180.36 180.391v661.42c0 99.7 80.73 180.39 180.36 180.39h661.29c99.52 0 180.36-80.69 180.36-180.39z"  horiz-adv-x="1024" />

    
    <glyph glyph-name="eye-closed" unicode="&#59001;" d="M930.8 432.2l-30 24.8c17.9 27 32.5 55.6 43.6 85.5v0.1 0.1c9.5 30.3-13 61.1-44.7 61.3h-5.9c-19.7 0.1-37.2-12.1-44.3-30.5-50.3-131.9-183-221.9-333.4-221.9-151 0-283.4 89.7-333.5 221.9-6.9 18.3-24.3 30.4-43.8 30.5h-8.5c-30.2 0.1-52.1-28.7-43.8-57.7 9.7-26.7 22.1-52.5 37.1-77L93.3 446c-21.8-16.8-25.9-48.3-9.2-70.1 16.8-21.8 48.3-25.9 70.1-9.2l31.1 23.9c15.2-15.4 31.6-29.8 49.2-43 10.2-7.7 20.7-14.9 31.5-21.7l-16.8-34.6c-12-24.7-1.6-54.8 23.2-66.8 24.7-12 54.8-1.6 66.8 23.2l16.7 34.5c2.9-1 5.7-2 8.6-3 31.9-10.8 64.9-18 98.4-21.7v-42.7c0-27.5 22.5-50 50-50s50 22.5 50 50v42c34 3.3 67.3 10.3 99.6 20.8l15.4-35.4c11-25.2 40.6-36.8 65.8-25.8 25.2 11 36.8 40.6 25.8 65.8l-15.8 36.3c14.6 8.6 28.7 17.9 42.3 28 14.2 10.6 27.6 21.9 40.3 33.9l30.6-25.3c21.2-17.5 52.9-14.5 70.4 6.7 17.7 21.2 14.7 52.9-6.5 70.4z"  horiz-adv-x="1024" />

    
    <glyph glyph-name="jiantoushang" unicode="&#58928;" d="M910.222222 99.555556c-17.066667 0-34.133333 5.688889-45.511111 17.066666L551.822222 486.4c-11.377778 5.688889-17.066667 11.377778-34.133333 11.377778-5.688889 0-22.755556-5.688889-28.444445-11.377778l-329.955555-364.088889c-22.755556-22.755556-56.888889-22.755556-79.644445-5.688889-22.755556 22.755556-22.755556 56.888889-5.688888 79.644445l329.955555 364.088889c28.444444 34.133333 73.955556 51.2 119.466667 51.2s85.333333-22.755556 119.466666-56.888889l312.888889-364.088889c22.755556-22.755556 17.066667-56.888889-5.688889-79.644445-11.377778-5.688889-28.444444-11.377778-39.822222-11.377777z"  horiz-adv-x="1024" />

    
    <glyph glyph-name="jiantouxia" unicode="&#58929;" d="M517.688889 99.555556c-45.511111 0-85.333333 17.066667-119.466667 51.2L73.955556 514.844444c-22.755556 22.755556-17.066667 56.888889 5.688888 79.644445 22.755556 22.755556 56.888889 17.066667 79.644445-5.688889l329.955555-364.088889c5.688889-5.688889 17.066667-11.377778 28.444445-11.377778s22.755556 5.688889 34.133333 17.066667l312.888889 364.088889c22.755556 22.755556 56.888889 28.444444 79.644445 5.688889 22.755556-22.755556 28.444444-56.888889 5.688888-79.644445L637.155556 156.444444c-28.444444-39.822222-68.266667-56.888889-119.466667-56.888888 5.688889 0 0 0 0 0z"  horiz-adv-x="1024" />

    


  </font>
</defs>
</svg>
